<svg id="Capa_1" enable-background="new 0 0 512 512" height="512" viewBox="0 0 512 512" width="512" xmlns="http://www.w3.org/2000/svg"><g><g><path clip-rule="evenodd" d="m367.012 339.56v65.065h47.541v-86.246c0-16.917-47.541-18.407-47.541 21.181z" fill="#ce9875" fill-rule="evenodd"/></g><g><path clip-rule="evenodd" d="m232.215 327.436v99.832h47.57v-99.832c-10.396-13.586-30.049-17.676-47.57 0z" fill="#ce9875" fill-rule="evenodd"/></g><g><path clip-rule="evenodd" d="m97.418 318.408v86.246h47.57v-65.094c4.03-46.249-39.306-46.658-47.57-21.152z" fill="#ce9875" fill-rule="evenodd"/></g><g fill="#c6865c"><path d="m121.335 290.769h23.917v114.178h-23.917z"/><path d="m256 313.089h23.917v114.178h-23.917z"/><path d="m390.782 292.113h23.917v114.178h-23.917z"/></g><g><path clip-rule="evenodd" d="m26.778 177.702c-10.834 10.868-14.776 26.002-11.798 39.997-1.927 1.169-3.738 2.571-5.402 4.236-10.63 10.635-11.097 27.551-1.46 38.77-5.139 7.948-8.118 17.501-8.118 27.756 0 27.843 22.048 50.427 49.264 50.427 17.375 0 32.648-9.203 41.438-23.11 2.219.993 4.439 1.87 6.716 2.629 7.768 2.542 15.798 3.564 23.77 3.068 2.482.175 4.964.175 7.417.029 18.689-15.718 46.694-135.593 40.941-184.647-.701-10.722-5.169-21.269-13.345-29.45-9.607-9.612-22.427-14.082-35.013-13.41-12.557-.672-25.377 3.798-34.984 13.41-9.023 9.028-13.491 20.89-13.433 32.722-9.666-3.214-20.733-.993-28.443 6.72-6.424 6.398-9.023 15.192-7.855 23.548-3.475 1.93-6.745 4.355-9.695 7.305z" fill="#a4dcb1" fill-rule="evenodd"/></g><g><path clip-rule="evenodd" d="m139.265 189.126c-2.716 8.239-3.183 17.062-1.402 25.506-2.132 1.286-4.147 2.863-5.986 4.704-11.827 11.833-12.352 30.648-1.635 43.123-5.724 8.853-9.053 19.458-9.053 30.852 0 10.284 2.716 19.896 7.417 28.194 4.088 7.187 9.695 13.352 16.382 18.056 8.819 6.194 19.507 9.846 31.013 9.846 14.309 0 27.333-5.61 37.087-14.813 3.446-3.243 6.454-6.895 8.994-10.898 1.46.672 2.949 1.285 4.468 1.841 1.869.701 3.767 1.344 5.665 1.899 7.797 2.22 15.798 3.097 23.77 2.6 7.972.497 16.003-.38 23.8-2.6 1.898-.555 3.796-1.198 5.665-1.899 1.489-.555 2.979-1.169 4.468-1.841 2.541 4.003 5.548 7.655 8.965 10.898 9.753 9.203 22.778 14.813 37.087 14.813 11.535 0 22.223-3.652 31.042-9.846 6.658-4.704 12.265-10.868 16.353-18.056 4.702-8.297 7.417-17.91 7.417-28.194 0-11.394-3.329-22-9.023-30.852 10.717-12.475 10.162-31.291-1.664-43.123-1.84-1.841-3.855-3.418-5.986-4.704 1.811-8.443 1.343-17.267-1.402-25.506-2.307-6.924-6.22-13.439-11.71-18.961-3.3-3.272-6.921-5.989-10.776-8.151 1.226-8.853-1.343-18.114-7.768-25.155-.321-.351-.642-.701-.993-1.023-8.527-8.56-20.85-11.044-31.597-7.479.058-13.147-4.935-26.324-14.981-36.374-10.659-10.693-24.909-15.66-38.897-14.9-13.988-.76-28.209 4.207-38.897 14.9-10.046 10.05-15.01 23.227-14.951 36.374-10.746-3.564-23.07-1.081-31.626 7.479-.321.321-.642.672-.964 1.023-6.424 7.041-9.023 16.303-7.768 25.155-3.884 2.162-7.505 4.879-10.776 8.151-5.518 5.521-9.431 12.037-11.738 18.961z" fill="#ccf49f" fill-rule="evenodd"/></g><g><path clip-rule="evenodd" d="m383.365 321.505c2.482.146 4.935.146 7.417-.029 7.972.497 16.003-.526 23.77-3.097 2.278-.73 4.526-1.607 6.746-2.6 8.761 13.907 24.033 23.11 41.409 23.11 27.158 0 49.205-22.497 49.293-50.252v-.175-.175c-.029-10.196-3.037-19.663-8.118-27.58 9.637-11.219 9.14-28.135-1.489-38.77-1.665-1.665-3.475-3.068-5.402-4.236 2.979-13.995-.934-29.129-11.798-39.997-2.949-2.951-6.22-5.376-9.666-7.304 1.168-8.356-1.46-17.15-7.885-23.548-7.68-7.713-18.748-9.934-28.414-6.72.058-11.833-4.439-23.694-13.462-32.722-9.607-9.612-22.398-14.082-34.984-13.41-12.586-.672-25.377 3.798-34.984 13.41-8.206 8.181-12.645 18.728-13.345 29.45-13.054 46.949 18.952 164.544 40.912 184.645z" fill="#bee9ac" fill-rule="evenodd"/></g><g><path clip-rule="evenodd" d="m97.418 218.81c-.876.76-1.723 1.519-2.541 2.337-15.331 15.368-16.032 39.793-2.132 55.978-10.279 15.952-9.754 22.759-2.044 38.653 2.219.993 4.439 1.87 6.716 2.629 7.768 2.542 15.798 3.564 23.77 3.068 2.482.175 4.964.175 7.417.029-4.702-8.297-7.417-17.91-7.417-28.194 0-11.394 3.329-22 9.053-30.852-10.717-12.475-10.192-31.291 1.635-43.123 1.84-1.841 3.855-3.418 5.986-4.704-1.781-8.443-1.314-17.267 1.402-25.506 2.307-6.924 6.22-13.439 11.739-18.961 3.271-3.272 6.892-5.989 10.776-8.151-1.256-8.853 1.343-18.114 7.768-25.155-.701-10.722-5.169-21.269-13.345-29.45-.584-.555-1.139-1.11-1.723-1.636-3.387 1.811-6.57 4.149-9.432 7.012-.438.438-.847.876-1.256 1.315-8.352 9.115-11.71 21.182-10.104 32.664-5.023 2.805-9.724 6.311-13.988 10.576-7.155 7.158-12.236 15.601-15.214 24.6-.788 2.367-1.431 4.762-1.927 7.187-1.752 8.56-1.694 17.384.117 25.915-1.839 1.11-3.591 2.366-5.256 3.769z" fill="#8bcbb1" fill-rule="evenodd"/></g><g><path clip-rule="evenodd" d="m275.054 145.302c10.746-3.594 23.07-1.081 31.626 7.45.321.351.642.672.964 1.023.263.292.526.584.759.876 5.87 6.924 8.206 15.806 7.008 24.308 3.884 2.133 7.505 4.85 10.776 8.122 5.519 5.522 9.432 12.037 11.739 18.991 2.716 8.21 3.183 17.033 1.402 25.477 2.132 1.286 4.147 2.863 5.986 4.704 11.827 11.833 12.352 30.648 1.635 43.123 5.724 8.853 9.023 19.458 9.023 30.852 0 4.499-.496 8.853-1.46 13.03-1.256 5.405-3.271 10.518-5.928 15.163-2.249 3.915-4.935 7.538-7.972 10.781 9.724-.818 18.748-4.266 26.399-9.641 6.658-4.704 12.265-10.868 16.353-18.056 4.702-8.297 7.417-17.91 7.417-28.194 0-11.394-3.329-22-9.023-30.852 10.717-12.475 10.162-31.291-1.664-43.123-1.84-1.841-3.855-3.418-5.986-4.704 1.811-8.443 1.343-17.267-1.402-25.506-2.307-6.924-6.22-13.439-11.71-18.961-3.3-3.272-6.921-5.989-10.776-8.151 1.226-8.853-1.343-18.114-7.768-25.155-.321-.351-.642-.701-.993-1.023-8.527-8.56-20.85-11.044-31.597-7.479.058-13.147-4.935-26.324-14.981-36.374-10.659-10.693-24.909-15.66-38.897-14.9-13.988-.76-28.209 4.207-38.897 14.9-.672.672-1.314 1.373-1.957 2.074 2.015-.146 4.059-.146 6.074-.029 13.988-.76 28.209 4.207 38.897 14.871 10.047 10.05 15.012 23.226 14.953 36.403z" fill="#b3e59f" fill-rule="evenodd"/></g><g><path clip-rule="evenodd" d="m406.551 156.141c9.666-3.214 20.763-.964 28.443 6.72 6.424 6.428 9.023 15.222 7.855 23.548 3.475 1.928 6.746 4.382 9.695 7.333 10.834 10.839 14.776 26.002 11.798 39.968 1.927 1.169 3.738 2.571 5.402 4.236 10.63 10.635 11.126 27.58 1.46 38.799 5.11 7.888 8.089 17.384 8.118 27.551v.175.175c-.029 13.177-5.023 25.155-13.112 34.125 25.523-1.811 45.701-23.578 45.789-50.135v-.175-.175c-.029-10.196-3.037-19.663-8.118-27.58 9.637-11.219 9.14-28.135-1.489-38.77-1.665-1.665-3.475-3.068-5.402-4.236 2.979-13.995-.934-29.129-11.798-39.997-2.949-2.951-6.22-5.376-9.666-7.304 1.168-8.356-1.46-17.15-7.885-23.548-7.68-7.713-18.748-9.934-28.414-6.72.058-11.833-4.439-23.694-13.462-32.722-9.607-9.612-22.398-14.082-34.984-13.41-12.586-.672-25.377 3.798-34.984 13.41-.847.847-1.665 1.724-2.424 2.629 1.577-.088 3.154-.088 4.76 0 12.557-.672 25.377 3.769 34.984 13.381 9.025 9.027 13.493 20.889 13.434 32.722z" fill="#a4dcb1" fill-rule="evenodd"/></g><g><path d="m218.022 263.903c-1.96 0-3.922-.741-5.428-2.228-5.848-5.773-12.556-5.774-18.404.001-3.038 2.998-7.929 2.966-10.927-.071-2.998-3.036-2.966-7.929.07-10.927 11.81-11.658 28.307-11.66 40.117.001 3.037 2.998 3.068 7.889.07 10.927-1.51 1.53-3.504 2.297-5.498 2.297z" fill="#b3e59f"/></g><g><path d="m316.638 267.264c-1.965 0-3.931-.744-5.438-2.237-5.842-5.788-12.545-5.786-18.385 0-3.031 3.003-7.924 2.98-10.927-.051-3.003-3.032-2.98-7.924.051-10.927 11.818-11.704 28.32-11.703 40.136 0 3.031 3.003 3.054 7.894.051 10.927-1.509 1.524-3.499 2.288-5.488 2.288z" fill="#b3e59f"/></g><g><path d="m268.426 189.519c-1.965 0-3.931-.744-5.438-2.237-5.841-5.787-12.543-5.787-18.386 0-3.031 3.002-7.923 2.98-10.927-.051-3.003-3.032-2.979-7.924.052-10.927 11.815-11.704 28.318-11.704 40.135 0 3.031 3.003 3.054 7.894.051 10.927-1.509 1.525-3.499 2.288-5.487 2.288z" fill="#b3e59f"/></g><g><path d="m88.628 206.026c-1.963 0-3.927-.743-5.434-2.233-4.767-4.716-10.236-4.718-15.006 0-3.034 3.002-7.926 2.975-10.927-.059-3.001-3.033-2.974-7.926.059-10.927 10.816-10.699 25.925-10.698 36.741 0 3.033 3.001 3.06 7.893.058 10.927-1.509 1.527-3.5 2.292-5.491 2.292z" fill="#8bcbb1"/></g><g><path d="m66.376 269.893c-1.963 0-3.927-.743-5.434-2.233-4.769-4.719-10.238-4.718-15.005 0-3.034 3.001-7.926 2.975-10.927-.059-3.002-3.033-2.975-7.926.058-10.927 10.817-10.701 25.924-10.7 36.741 0 3.033 3.001 3.06 7.893.058 10.927-1.509 1.527-3.5 2.292-5.491 2.292z" fill="#8bcbb1"/></g><g><path d="m402.755 206.026c-1.991 0-3.982-.765-5.493-2.293-3.001-3.034-2.974-7.926.059-10.927 10.817-10.699 25.926-10.698 36.74 0 3.034 3.001 3.06 7.893.059 10.927-3.002 3.033-7.893 3.059-10.927.059-4.769-4.716-10.237-4.718-15.006 0-1.505 1.491-3.469 2.234-5.432 2.234z" fill="#a4dcb1"/></g><g><path d="m450.88 269.893c-1.964 0-3.928-.743-5.434-2.233-4.769-4.718-10.237-4.718-15.006 0-3.033 3-7.926 2.976-10.927-.059-3.001-3.033-2.975-7.926.059-10.927 10.815-10.7 25.926-10.7 36.74 0 3.034 3.001 3.06 7.893.059 10.927-1.509 1.527-3.5 2.292-5.491 2.292z" fill="#a4dcb1"/></g><g><path d="m299.935 434.994h-87.869c-4.267 0-7.726-3.459-7.726-7.726s3.459-7.726 7.726-7.726h87.869c4.268 0 7.726 3.459 7.726 7.726s-3.459 7.726-7.726 7.726z" fill="#ccf49f"/></g><g><path d="m434.702 412.351h-87.84c-4.268 0-7.726-3.459-7.726-7.726s3.459-7.726 7.726-7.726h87.84c4.268 0 7.726 3.459 7.726 7.726s-3.458 7.726-7.726 7.726z" fill="#bee9ac"/></g><g><path d="m165.138 412.38h-87.869c-4.267 0-7.726-3.459-7.726-7.726s3.459-7.726 7.726-7.726h87.869c4.267 0 7.726 3.459 7.726 7.726s-3.459 7.726-7.726 7.726z" fill="#a4dcb1"/></g></g></svg>