<svg id="Layer_1" enable-background="new 0 0 512 512" height="512" viewBox="0 0 512 512" width="512" xmlns="http://www.w3.org/2000/svg"><g><g><g><g><g><g id="XMLID_2475_"><g id="XMLID_2476_"><g id="XMLID_2477_"><g id="XMLID_2478_"><g id="XMLID_2479_"><g id="XMLID_2480_"><g id="XMLID_2481_"><g id="XMLID_2512_"><g id="XMLID_2513_"><g id="XMLID_2514_"><g id="XMLID_2515_"><g id="XMLID_2702_"><g id="XMLID_2703_"><g id="XMLID_2704_"><g id="XMLID_2705_"><path d="m0 256c0-141.385 114.615-256 256-256s256 114.615 256 256c0 59.037-19.984 113.406-53.557 156.713-46.828 60.406-120.095 22.618-202.443 22.618s-155.615 37.788-202.443-22.618c-33.573-43.307-53.557-97.676-53.557-156.713z" fill="#fff17d"/></g></g></g></g></g></g></g></g></g></g></g></g></g></g></g></g></g></g></g><path d="m342.771 69.04-36.65-37.706-15.227 22.291-34.894-35.292-99.264 206.579 36.814 36.849c4.882 8.956 17.871 20.195 23.241 26.172l-163.231 124.777c.009.012.017.027.026.04 46.83 60.352 120.083 22.581 202.414 22.581 82.348 0 155.615 37.788 202.443-22.618 33.573-43.307 53.557-97.676 53.557-156.713 0-11.825-.82-23.458-2.372-34.857l-160.008-160.007z" fill="#ffdd54"/><g><path d="m458.44 399.75v12.96c-41.7 53.79-104.36 90.51-175.72 97.91-8.78.91-17.7 1.38-26.72 1.38s-17.94-.47-26.72-1.38c-71.36-7.4-134.02-44.12-175.72-97.91v-12.96c0-41.39 34.27-74.94 76.54-74.94h251.8c42.27 0 76.54 33.55 76.54 74.94z" fill="#806e66"/><path d="m458.44 399.75v12.96c-41.7 53.79-104.36 90.51-175.72 97.91-8.78.91-17.7 1.38-26.72 1.38v-187.19h125.9c42.27 0 76.54 33.55 76.54 74.94z" fill="#63544f"/><g><path d="m190.335 457.829c-12.751 0-23.088-10.337-23.088-23.088v-121.361h46.176v121.361c-.001 12.752-10.337 23.088-23.088 23.088z" fill="#d0004f"/><path d="m319.367 457.829c-12.751 0-23.088-10.337-23.088-23.088v-121.361h46.176v121.361c0 12.752-10.337 23.088-23.088 23.088z" fill="#c1126b"/></g><path d="m296.699 354.03h-83.697c-30.964 0-56.298-25.334-56.298-56.298v-.862c0-13.278 10.864-24.141 24.141-24.141h148.01c13.278 0 24.141 10.864 24.141 24.141v.862c.001 30.964-25.333 56.298-56.297 56.298z" fill="#ff405c"/><path d="m353 296.87v.86c0 30.97-25.34 56.3-56.3 56.3h-40.7v-81.3h72.86c6.08 0 11.65 2.27 15.9 6.02 5.04 4.43 8.24 10.92 8.24 18.12z" fill="#d0004f"/><path d="m349.872 155.793c-3.965-60.205-52.664-82.455-93.872-82.455s-89.907 22.25-93.872 82.454c-10.656 2.061-18.226 16.038-17.034 27.338l1.827 25.717c1.25 11.867 11.682 20.531 23.177 19.241l1.983-.215c23.549 63.233 60.478 69.825 83.919 73.527 23.441-3.702 60.371-10.295 83.92-73.527l1.983.215c11.496 1.289 21.927-7.374 23.178-19.241l1.826-25.717c1.191-11.299-6.378-25.276-17.035-27.337z" fill="#db8042"/><path d="m366.906 183.131-1.826 25.717c-1.25 11.867-11.682 20.531-23.178 19.241l-1.983-.215c-8.048 21.586-17.649 36.578-27.739 47.097-19.456 20.296-40.739 23.988-56.181 26.43v-228.063c41.208 0 89.907 22.25 93.872 82.454 10.658 2.062 18.227 16.039 17.035 27.339z" fill="#c66626"/><path d="m349.62 61.136-20.287 9.78-23.213-39.583-22.666 17.667-27.454-30.667-27.454 30.667-22.667-17.667-23.213 39.583-20.287-9.78c-14.897 46.802 0 92.013 0 92.013l5.288 27.851h20.667l6.879-33.89c2.584-12.731 15.333-20.675 27.9-17.386l27.16 7.109c3.756.983 7.702.983 11.458 0l27.159-7.109c12.567-3.29 25.316 4.655 27.9 17.386l6.879 33.89h20.667l5.287-27.851c-.003 0 14.894-45.211-.003-92.013z" fill="#63544f"/><path d="m349.62 153.15-5.29 27.85h-20.66l-6.88-33.89c-2.59-12.73-15.33-20.68-27.9-17.39l-27.16 7.11c-1.88.49-3.81.74-5.73.74v-119.24l27.45 30.67 22.67-17.67 23.21 39.59 20.29-9.78c14.9 46.8 0 92.01 0 92.01z" fill="#4f4540"/></g></g></svg>