<svg height="512pt" viewBox="-50 0 512 512" width="512pt" xmlns="http://www.w3.org/2000/svg"><path d="m39.339844 512c0-91.820312 74.433594-166.253906 166.25-166.253906s166.253906 74.433594 166.253906 166.253906zm0 0" fill="#e6646e"/><path d="m231.34375 347.734375c-8.394531-1.304687-16.992188-1.988281-25.753906-1.988281-91.820313 0-166.25 74.4375-166.25 166.253906h51.507812c0-83.058594 60.910156-151.886719 140.496094-164.265625zm0 0" fill="#dc4655"/><path d="m223.355469 483.671875h-35.542969c-3.558594 0-6.445312-2.886719-6.445312-6.445313v-54.410156c0-3.558594 2.886718-6.445312 6.445312-6.445312h35.542969c3.558593 0 6.445312 2.882812 6.445312 6.445312v54.410156c0 3.558594-2.886719 6.445313-6.445312 6.445313zm0 0" fill="#dc4655"/><path d="m205.589844 303.730469h-59.609375v53.035156l59.609375 59.605469 59.609375-59.605469v-53.035156zm0 0" fill="#b67f5f"/><path d="m225.136719 435.925781-19.550781-19.554687 68.050781-68.050782 19.550781 19.550782c4.578125 4.578125 4.578125 11.996094 0 16.574218l-51.476562 51.480469c-4.578126 4.574219-11.996094 4.574219-16.574219 0zm0 0" fill="#ff8087"/><path d="m295.832031 371.945312c-.570312-1.480468-1.445312-2.875-2.644531-4.074218l-19.550781-19.550782-43.792969 43.789063c23.492188-2.867187 45.738281-9.828125 65.988281-20.164063zm0 0" fill="#e6646e"/><path d="m186.03125 435.925781 19.554688-19.554687-68.054688-68.050782-19.550781 19.550782c-4.578125 4.578125-4.578125 11.996094 0 16.574218l51.476562 51.480469c4.578125 4.574219 11.996094 4.574219 16.574219 0zm0 0" fill="#ff8087"/><path d="m181.320312 392.109375-43.789062-43.789063-19.550781 19.550782c-1.195313 1.199218-2.070313 2.589844-2.640625 4.070312 20.25 10.335938 42.488281 17.300782 65.980468 20.167969zm0 0" fill="#e6646e"/><path d="m145.980469 303.730469v53.035156l35.34375 35.34375c7.957031.96875 16.054687 1.480469 24.265625 1.480469 8.214844 0 16.308594-.511719 24.265625-1.480469l35.34375-35.34375v-53.035156zm0 0" fill="#a06e50"/><path d="m411.179688 204.003906c0 19.550782-15.851563 35.402344-35.40625 35.402344-19.554688 0-35.40625-15.851562-35.40625-35.402344 0-19.554687 15.851562-35.40625 35.40625-35.40625 19.554687 0 35.40625 15.851563 35.40625 35.40625zm0 0" fill="#b67f5f"/><path d="m70.8125 204.003906c0 19.550782-15.851562 35.402344-35.40625 35.402344s-35.40625-15.851562-35.40625-35.402344c0-19.554687 15.851562-35.40625 35.40625-35.40625s35.40625 15.851563 35.40625 35.40625zm0 0" fill="#a06e50"/><path d="m384.199219 194.0625c0 98.640625-79.964844 178.609375-178.609375 178.609375-98.644532 0-178.609375-79.96875-178.609375-178.609375 0-98.644531 79.964843-178.609375 178.609375-178.609375 98.644531 0 178.609375 79.964844 178.609375 178.609375zm0 0" fill="#cd916e"/><path d="m78.488281 194.0625c0-89.898438 66.417969-164.269531 152.855469-176.753906-8.410156-1.214844-17.003906-1.855469-25.753906-1.855469-98.644532 0-178.609375 79.964844-178.609375 178.609375 0 98.640625 79.964843 178.609375 178.609375 178.609375 8.746094 0 17.34375-.640625 25.753906-1.855469-86.4375-12.488281-152.855469-86.859375-152.855469-176.753906zm0 0" fill="#b67f5f"/><path d="m205.589844 0c-101.445313 0-184.980469 78.15625-193.554688 177.417969v.003906c4.640625-4.078125 10.347656-6.96875 16.65625-8.179687v-.007813l33.503906-23.941406h286.789063l33.503906 23.941406v.007813c6.308594 1.210937 12.019531 4.101562 16.65625 8.179687-8.574219-99.265625-92.109375-177.421875-193.554687-177.421875zm0 0" fill="#64505a"/><path d="m231.339844 1.714844c-8.429688-1.121094-17.019532-1.714844-25.75-1.714844-101.445313 0-184.980469 78.15625-193.554688 177.417969v.003906c4.640625-4.078125 10.347656-6.96875 16.65625-8.179687v-.007813l33.503906-23.941406h7.050782c19.585937-75.394531 83.476562-133.105469 162.09375-143.578125zm0 0" fill="#5a4650"/><path d="m349.863281 146.976562c-.296875-1.089843-.984375-2.019531-1.941406-2.621093-10.828125-6.804688-79.5625-48.375-142.332031-48.375-62.769532 0-131.503906 41.570312-142.332032 48.375-.957031.601562-1.644531 1.53125-1.941406 2.621093-2.917968 10.734376-17.664062 69.058594 6.953125 67.660157 27.113281-1.539063 79.566407-59.328125 137.320313-59.328125 57.757812 0 110.210937 57.789062 137.320312 59.328125 24.617188 1.398437 9.871094-56.925781 6.953125-67.660157zm0 0" fill="#6e5a64"/><g fill="#5a4650"><path d="m205.589844 259.265625c-9.78125 0-18.886719-5.273437-23.765625-13.761719-2.066407-3.589844-.828125-8.175781 2.761719-10.238281 3.589843-2.066406 8.175781-.828125 10.242187 2.761719 2.210937 3.847656 6.332031 6.234375 10.761719 6.234375 4.425781 0 8.550781-2.386719 10.761718-6.234375 2.0625-3.589844 6.648438-4.828125 10.242188-2.761719 3.589844 2.0625 4.828125 6.648437 2.761719 10.238281-4.878907 8.488282-13.984375 13.761719-23.765625 13.761719zm0 0"/><path d="m271.203125 229.101562c-4.144531 0-7.5-3.355468-7.5-7.5v-11.695312c0-4.144531 3.355469-7.5 7.5-7.5 4.140625 0 7.5 3.355469 7.5 7.5v11.695312c0 4.144532-3.359375 7.5-7.5 7.5zm0 0"/><path d="m139.976562 229.101562c-4.140624 0-7.5-3.355468-7.5-7.5v-11.695312c0-4.144531 3.359376-7.5 7.5-7.5 4.144532 0 7.5 3.355469 7.5 7.5v11.695312c0 4.144532-3.355468 7.5-7.5 7.5zm0 0"/></g><path d="m277.050781 251.214844h-11.699219c-4.140624 0-7.5-3.355469-7.5-7.5 0-4.140625 3.359376-7.5 7.5-7.5h11.699219c4.140625 0 7.5 3.359375 7.5 7.5 0 4.144531-3.359375 7.5-7.5 7.5zm0 0" fill="#e6646e"/><path d="m145.828125 251.214844h-11.699219c-4.140625 0-7.5-3.355469-7.5-7.5 0-4.140625 3.359375-7.5 7.5-7.5h11.699219c4.140625 0 7.5 3.359375 7.5 7.5 0 4.144531-3.359375 7.5-7.5 7.5zm0 0" fill="#e6646e"/></svg>