<svg id="Capa_1" enable-background="new 0 0 512 512" height="512" viewBox="0 0 512 512" width="512" xmlns="http://www.w3.org/2000/svg"><g><g><path d="m413.258 504.5c0-92.764-68.515-138.372-68.515-138.372h-177.486s-68.515 45.608-68.515 138.372z" fill="#6a647f"/><path d="m230.916 366.128h50.168v138.372h-50.168z" fill="#fbe5c8"/><path d="m281.707 427.525h-51.413c-10.113 0-18.311 8.198-18.311 18.311 0 10.113 8.198 18.311 18.311 18.311h51.413c10.113 0 18.311-8.198 18.311-18.311 0-10.112-8.198-18.311-18.311-18.311z" fill="#fbdab2"/><circle cx="433.797" cy="230.295" fill="#ffbd86" r="46.123"/><path d="m204.439 366.128h-37.181s-68.515 45.608-68.515 138.373h26.42c.958-54.682 33.536-107.299 79.276-138.373z" fill="#5c586f"/><path d="m433.797 219.836c0 98.194-79.602 167.337-177.797 167.337s-177.797-69.142-177.797-167.337 79.603-177.797 177.797-177.797 177.797 79.603 177.797 177.797z" fill="#fed2a4"/><path d="m191.397 376.495c-39.537-41.681-60.76-102.91-60.76-171.173 0-57.055 21.016-109.198 55.725-149.121-53.058 22.608-92.873 70.267-104.603 128.122-1.175-.09-2.358-.15-3.555-.15-25.473 0-46.123 20.65-46.123 46.123s20.65 46.123 46.123 46.123c3.171 0 6.267-.321 9.258-.93 16.797 47.98 55.123 84.069 103.935 101.006z" fill="#ffbd86"/><path d="m493.067 149.649c-62.993-76.774-156.109-118.623-204.77-136.427-20.855-7.63-43.739-7.63-64.593 0-48.662 17.804-141.778 59.653-204.771 136.427-14.732 17.955-1.78 44.983 21.445 44.983h431.242c23.227 0 36.179-27.028 21.447-44.983z" fill="#edb798"/><g><g><g><ellipse cx="163.616" cy="266.459" fill="#ff889e" rx="34.088" ry="27.146"/></g><g><ellipse cx="348.384" cy="266.459" fill="#ff889e" rx="34.088" ry="27.146"/></g></g></g><path d="m244.581 8.211c-7.081.866-14.088 2.527-20.878 5.011-48.661 17.804-141.777 59.653-204.77 136.427-14.732 17.955-1.78 44.983 21.445 44.983h90.515c3.693-79.772 48.481-148.81 113.688-186.421z" fill="#e8a882"/></g><g><path d="m183.479 213.19c-13.082 0-23.725 10.643-23.725 23.725 0 4.143 3.358 7.5 7.5 7.5s7.5-3.357 7.5-7.5c0-4.811 3.914-8.725 8.725-8.725s8.725 3.914 8.725 8.725c0 4.143 3.358 7.5 7.5 7.5s7.5-3.357 7.5-7.5c.001-13.082-10.642-23.725-23.725-23.725z"/><path d="m328.517 213.19c-13.082 0-23.725 10.643-23.725 23.725 0 4.143 3.358 7.5 7.5 7.5s7.5-3.357 7.5-7.5c0-4.811 3.914-8.725 8.725-8.725s8.725 3.914 8.725 8.725c0 4.143 3.358 7.5 7.5 7.5s7.5-3.357 7.5-7.5c0-13.082-10.643-23.725-23.725-23.725z"/><path d="m278.137 250.225c-3.123-2.721-7.861-2.397-10.582.726-2.918 3.349-7.13 5.269-11.557 5.269s-8.639-1.92-11.557-5.269c-2.722-3.122-7.46-3.447-10.582-.726-3.123 2.721-3.448 7.459-.727 10.582 5.768 6.618 14.102 10.413 22.866 10.413s17.098-3.795 22.866-10.413c2.721-3.123 2.396-7.861-.727-10.582z"/><path d="m226.278 20.258c19.165-7.012 40.275-7.012 59.441 0 20.592 7.533 52.259 20.574 86.186 39.916 3.597 2.051 8.179.797 10.23-2.801 2.051-3.599.797-8.179-2.801-10.231-34.83-19.857-67.331-33.241-88.461-40.971-22.49-8.228-47.26-8.228-69.748 0-50.261 18.388-144.116 60.861-207.995 138.715-16.87 20.56-5.324 51.211 19.92 56.483-5.475 8.529-8.475 18.513-8.475 28.922 0 29.568 24.056 53.623 53.624 53.623 1.459 0 2.917-.075 4.37-.193 13.202 33.689 37.311 63.066 71.186 83.453-8.184 7.023-20.535 19.135-32.15 36.49-2.304 3.442-1.381 8.101 2.062 10.404 3.444 2.304 8.101 1.38 10.404-2.063 13.156-19.659 27.511-32.078 33.923-37.098 17.172 8.368 35.837 14.192 55.42 17.252v28.801c-10.903 3.019-18.934 13.023-18.934 24.874s8.031 21.855 18.934 24.874v26.292h-57.361v-37.522c0-4.143-3.358-7.5-7.5-7.5s-7.5 3.357-7.5 7.5v37.522h-44.656c.873-20.577 5.348-40.303 13.338-58.74 1.647-3.8-.099-8.217-3.899-9.863-3.801-1.648-8.217.099-9.864 3.899-9.776 22.559-14.733 46.851-14.733 72.204 0 4.142 3.358 7.5 7.5 7.5h314.52c4.142 0 7.5-3.358 7.5-7.5 0-55.476-24.8-104.954-62.517-137.326 33.899-20.401 57.993-49.786 71.186-83.453 1.453.118 2.911.193 4.37.193 29.568 0 53.623-24.055 53.623-53.623 0-10.41-3-20.393-8.475-28.922 25.212-5.265 36.814-35.894 19.921-56.483-24.487-29.844-55.708-57.243-92.796-81.436-3.468-2.263-8.117-1.286-10.38 2.184-2.263 3.469-1.285 8.116 2.184 10.38 35.804 23.355 65.88 49.729 89.395 78.388 10.661 12.993 1.394 32.726-15.647 32.726-99.925 0-347.954 0-431.25 0-16.874 0-26.417-19.6-15.648-32.726 61.62-75.101 152.729-116.281 201.553-134.144zm47.305 373.684v26.082h-35.169v-26.082c12.01.993 23.871.933 35.169 0zm-54.103 51.894c0-5.962 4.85-10.811 10.811-10.811h.618.005 50.169.005.617c5.962 0 10.811 4.85 10.811 10.811s-4.85 10.811-10.811 10.811h-51.414c-5.961 0-10.811-4.85-10.811-10.811zm18.934 51.164v-25.352h35.169v25.352zm167.186 0h-44.656v-37.522c0-4.143-3.358-7.5-7.5-7.5s-7.5 3.357-7.5 7.5v37.522h-57.36v-26.29c10.903-3.019 18.933-13.023 18.933-24.874s-8.03-21.855-18.933-24.874v-28.801c19.583-3.061 38.249-8.884 55.421-17.253 12.974 10.163 58.561 50.816 61.595 122.092zm-143.301-117.439c-.141.004-.282.01-.423.014-3.917.116-7.839.116-11.755 0-.142-.004-.283-.009-.424-.014-26.997-.854-54.432-7.351-78.988-20.093-.04-.021-.083-.034-.124-.054-48.29-25.118-80.215-71.054-84.417-127.04-.005-.067-.009-.134-.014-.201-.702-9.508-.595-19.747.474-30.046h338.742c1.056 10.182 1.186 20.393.473 30.052-.005.063-.009.127-.014.19-6.466 86.178-77.516 144.472-163.53 147.192zm197.927-177.434c7.781 7.296 12.195 17.422 12.195 28.164 0 21.06-16.945 38.237-37.916 38.617 3.11-10.808 5.387-23.102 6.31-35.816.753-10.489.605-20.773-.364-30.965zm-388.681 0c-.979 10.273-1.051 19.806-.489 28.956.804 13.257 3.125 26.322 6.435 37.825-20.972-.379-37.917-17.556-37.917-38.617 0-10.742 4.415-20.868 12.196-28.164z"/></g></g></svg>