<svg id="Layer_1" enable-background="new 0 0 512 512" height="512" viewBox="0 0 512 512" width="512" xmlns="http://www.w3.org/2000/svg"><g><path d="m400.225 512h-288.45c-5.69 0-10.302-4.612-10.302-10.302v-22.095c0-51.375 41.647-93.022 93.022-93.022h123.01c51.375 0 93.022 41.647 93.022 93.022v22.095c0 5.69-4.612 10.302-10.302 10.302z" fill="#e94444"/><path d="m317.505 386.581h-30.905c51.375 0 93.022 41.648 93.022 93.022v22.095c0 5.69-4.612 10.302-10.302 10.302h30.905c5.69 0 10.302-4.612 10.302-10.302v-22.095c0-51.374-41.647-93.022-93.022-93.022z" fill="#d83131"/><path d="m225.095 322.562h61.811v100.509h-61.811z" fill="#d78878"/><path d="m256 322.562h30.905v100.509h-30.905z" fill="#ca6e59"/><g fill="#ca6e59"><path d="m170.386 219.763c0 22.539-13.784 40.811-30.787 40.811s-26.881-20.983-26.881-43.523 9.877-38.099 26.881-38.099 30.787 18.272 30.787 40.811z"/><path d="m341.614 219.763c0 22.539 13.784 40.811 30.787 40.811s26.881-20.983 26.881-43.523-9.877-38.099-26.881-38.099-30.787 18.272-30.787 40.811z"/></g><path d="m156.634 243.017v-67.614c0-54.878 44.487-99.366 99.366-99.366 54.878 0 99.366 44.487 99.366 99.366v67.24c-1.08 55.617-26.439 99.553-99.553 99.553s-99.179-44.404-99.179-99.179z" fill="#d78878"/><path d="m256 76.037c-5.257 0-10.417.412-15.453 1.198 47.539 7.423 83.913 48.546 83.913 98.168v67.24c-1 51.491-22.816 92.964-84.067 98.835 4.891.47 10.024.718 15.419.718 73.114 0 98.472-43.935 99.553-99.553v-67.24c.001-54.878-44.487-99.366-99.365-99.366z" fill="#ca6e59"/><path d="m256 58.237c-152.388 0-109.463 131.539-106.178 138.6 3.087 6.647 6.812 24.734 6.812 24.734s21.17-17.011 20.487-23.503c-1.091-10.373-7.098-74.095 19.11-68.087 26.199 6.007 36.987 10.373 58.892 10.373s32.693-4.366 58.892-10.373c26.208-6.007 20.201 57.714 19.11 68.087-.683 6.492 22.24 23.562 22.24 23.562s1.971-18.145 5.058-24.792c4.886-10.501 47.965-138.601-104.423-138.601z" fill="#9b5e5e"/><g><path d="m256 58.237c-5.359 0-10.467.168-15.353.482 109.722 6.974 102.426 88.571 93.646 123.304-.305 7.423-.892 13.43-1.167 16.045-.683 6.492 22.24 23.562 22.24 23.562s1.971-18.145 5.058-24.792c4.885-10.501 47.964-138.601-104.424-138.601z" fill="#855151"/></g><g><path d="m247.924 268.522c3.058.798 5.566 1.197 8.076 1.197s5.019-.399 8.076-1.197c4.007-1.047 6.408-5.144 5.361-9.152-1.047-4.007-5.138-6.405-9.152-5.362-3.604.941-4.967.941-8.57 0-4.012-1.043-8.105 1.355-9.152 5.362-1.047 4.008 1.354 8.106 5.361 9.152z" fill="#ca6e59"/><path d="m238.229 181.871c1.046-4.008-1.354-8.105-5.362-9.151-11.641-3.039-18.74-3.039-30.381 0-4.008 1.046-6.408 5.144-5.362 9.151 1.047 4.008 5.145 6.408 9.151 5.362 9.164-2.393 13.639-2.393 22.803 0 .635.166 1.272.245 1.899.245 3.331 0 6.372-2.235 7.252-5.607z" fill="#855151"/><path d="m309.514 172.719c-11.641-3.039-18.74-3.039-30.381 0-4.008 1.046-6.408 5.144-5.362 9.151 1.047 4.008 5.146 6.408 9.151 5.362 9.164-2.393 13.639-2.393 22.803 0 .635.166 1.272.245 1.899.245 3.33 0 6.371-2.235 7.252-5.607 1.046-4.007-1.355-8.104-5.362-9.151z" fill="#855151"/><path d="m271.771 280.404c-9.728 5.415-21.814 5.414-31.542 0-3.62-2.015-8.186-.713-10.201 2.906-2.014 3.619-.713 8.186 2.906 10.201 7.114 3.96 15.088 5.939 23.065 5.939 7.975 0 15.953-1.98 23.066-5.938 3.619-2.015 4.92-6.582 2.906-10.201-2.014-3.62-6.579-4.92-10.2-2.907z" fill="#ca6e59"/><g fill="#855151"><path d="m212.732 208.459c-4.143 0-7.5 3.358-7.5 7.5v6.181c0 4.142 3.357 7.5 7.5 7.5s7.5-3.358 7.5-7.5v-6.181c0-4.142-3.357-7.5-7.5-7.5z"/><path d="m299.268 208.459c-4.143 0-7.5 3.358-7.5 7.5v6.181c0 4.142 3.357 7.5 7.5 7.5s7.5-3.358 7.5-7.5v-6.181c0-4.142-3.358-7.5-7.5-7.5z"/></g></g><path d="m240.547 423.404h30.905v88.596h-30.905z" fill="#e2dee2"/><path d="m225.095 362.363s-2.958 40.977 30.905 60.707c0 0-19.256 21.501-38.733 14.671-15.432-5.411-24.165-34.196-27.126-45.919-.747-2.955.441-6.056 2.964-7.767z" fill="#f3f0f3"/><path d="m286.905 362.363s2.958 40.977-30.905 60.707c0 0 19.256 21.501 38.733 14.671 15.432-5.411 24.165-34.196 27.126-45.919.747-2.955-.441-6.056-2.964-7.767z" fill="#f3f0f3"/><path d="m131.524 86.275s45.499-86.275 143.894-86.275 112.788 53.503 97.923 113.717c0 0-71.142-71.625-216.708-16.622z" fill="#22b37f"/><g><path d="m275.419 0c-4.746 0-9.367.205-13.868.587 73.893 5.3 91.385 46.013 84.482 94.789 18.251 9.228 27.309 18.341 27.309 18.341 14.864-60.214.472-113.717-97.923-113.717z" fill="#09a76d"/></g><path d="m389.397 107.225c-.885-.883-22.149-21.776-62.463-34.912-36.36-11.848-96.367-19.673-175.762 10.328-7.984 3.017-12.01 11.934-8.993 19.918 3.016 7.982 11.931 12.012 19.916 8.993 56.263-21.26 107.936-24.755 153.578-10.393 33.701 10.604 51.539 27.605 51.952 28.003 3.01 2.973 6.934 4.459 10.859 4.459 3.962 0 7.924-1.515 10.942-4.541 6.028-6.044 6.015-15.828-.029-21.855z" fill="#f3f0f3"/><g><g><path d="m389.397 107.225c-.885-.883-22.149-21.776-62.463-34.912-20.767-6.767-49.261-12.208-84.662-10.052 21.412 1.351 39.429 5.383 53.757 10.052 40.314 13.136 61.577 34.03 62.463 34.912 4.626 4.613 5.705 11.423 3.261 17.076 3.756 2.844 5.74 4.731 5.874 4.86 3.01 2.973 6.934 4.459 10.859 4.459 3.962 0 7.924-1.515 10.942-4.541 6.026-6.043 6.013-15.827-.031-21.854z" fill="#e2dee2"/></g></g><circle cx="141.794" cy="109.266" fill="#f3f0f3" r="30.905"/><path d="m141.794 78.36c-5.631 0-10.906 1.514-15.453 4.145 9.235 5.344 15.453 15.323 15.453 26.761s-6.218 21.416-15.453 26.761c4.547 2.631 9.821 4.145 15.453 4.145 17.069 0 30.905-13.837 30.905-30.905s-13.837-30.907-30.905-30.907z" fill="#e2dee2"/></g></svg>